<?xml version="1.0" standalone="no"?>
<!DOCTYPE svg PUBLIC "-//W3C//DTD SVG 20010904//EN"
 "http://www.w3.org/TR/2001/REC-SVG-20010904/DTD/svg10.dtd">
<svg version="1.0" xmlns="http://www.w3.org/2000/svg"
 width="513.000000pt" height="513.000000pt" viewBox="0 0 513.000000 513.000000"
 preserveAspectRatio="xMidYMid meet">
<metadata>
Created by potrace 1.14, written by Peter Selinger 2001-2017
</metadata>
<g transform="translate(0.000000,513.000000) scale(0.100000,-0.100000)"
fill="#000000" stroke="none">
<path d="M2510 5049 c-70 -8 -164 -39 -220 -74 -29 -18 -477 -278 -600 -347
-109 -62 -178 -102 -200 -116 -14 -9 -27 -17 -30 -17 -3 0 -16 -8 -30 -17 -14
-9 -144 -84 -290 -168 -146 -84 -323 -187 -395 -228 -71 -42 -143 -82 -159
-90 -43 -22 -148 -130 -177 -182 -14 -25 -34 -72 -44 -105 -19 -58 -20 -93
-20 -1125 0 -586 4 -1078 7 -1095 16 -73 49 -153 78 -189 50 -63 89 -101 134
-131 44 -28 826 -481 1582 -916 236 -135 302 -161 416 -161 120 0 167 18 423
167 315 183 659 381 865 500 113 65 246 141 295 170 50 29 113 66 141 82 248
140 284 162 340 218 70 69 120 158 138 249 10 47 13 310 11 1121 l-1 1060 -23
64 c-12 35 -40 90 -61 121 -61 90 -100 119 -350 263 -118 68 -149 86 -195 112
-46 26 -777 448 -852 491 -135 79 -198 114 -205 114 -4 0 -8 5 -8 10 0 6 -4
10 -9 10 -5 0 -76 38 -157 85 -202 115 -274 137 -404 124z"/>
</g>
</svg>
